<?xml version="1.0" encoding="UTF-8"?>
<svg width="59px" height="34px" viewBox="0 0 59 34" version="1.1" xmlns="http://www.w3.org/2000/svg" xmlns:xlink="http://www.w3.org/1999/xlink">
    <!-- Generator: Sketch 46.2 (44496) - http://www.bohemiancoding.com/sketch -->
    <title>dumbbell (1)</title>
    <desc>Created with Sketch.</desc>
    <defs></defs>
    <g id="Page-1" stroke="none" stroke-width="1" fill="none" fill-rule="evenodd">
        <g id="Desktop-Landscape" transform="translate(-196.000000, -433.000000)" fill="#419BF9">
            <g id="Group-2" transform="translate(80.000000, 165.000000)">
                <g id="dumbbell-(1)" transform="translate(145.355339, 285.000000) rotate(45.000000) translate(-145.355339, -285.000000) translate(120.355339, 260.000000)">
                    <g id="Layer_1">
                        <path d="M49.9463074,15.5203593 L45.2814371,10.8553892 L45.4764471,10.6603792 C46.3026946,9.83413174 46.7575848,8.73582834 46.7575848,7.56756487 C46.7575848,6.3992016 46.3026946,5.300998 45.4764471,4.4747505 C43.7707585,2.76806387 40.99501,2.76906188 39.2902196,4.4747505 L39.0956088,4.66936128 L34.4306387,0.00429141717 L29.6263473,4.80858283 L25.4179641,0.600199601 L19.2245509,6.79361277 L28.0978044,15.6670659 L15.6596806,28.1046906 L6.78932136,19.2288423 L0.595908184,25.4222555 L4.80439122,29.6309381 L0,34.4349301 L4.66467066,39.0996008 L4.46986028,39.2944112 C2.76457086,41.0000998 2.76457086,43.7753493 4.46986028,45.4806387 C5.32245509,46.3337325 6.44281437,46.7597804 7.56267465,46.7597804 C8.68303393,46.7597804 9.80339321,46.3337325 10.655988,45.4806387 L10.8507984,45.2858283 L15.5068862,49.9419162 L20.3188623,45.1456088 L24.5282435,49.3550898 L30.7144711,43.1688623 L21.8441118,34.293014 L34.2836327,21.8530938 L43.1568862,30.7265469 L49.3507984,24.5326347 L45.1423154,20.3242515 L49.9463074,15.5203593 Z M40.6797405,5.86427146 C41.6191617,4.9252495 43.1474052,4.9243513 44.0868263,5.86427146 C45.0258483,6.80369261 45.0258483,8.33143713 44.0868263,9.27095808 L43.892016,9.46576846 L42.1884232,7.76247505 L40.4850299,6.05888224 L40.6797405,5.86427146 Z M34.4306387,2.78333333 L37.705988,6.05878244 L37.7057884,6.05898204 L40.7989022,9.15179641 L47.1671657,15.5203593 L43.7527944,18.9347305 L37.3842315,12.5664671 L31.0157685,6.19810379 L34.4306387,2.78333333 Z M9.26656687,44.0911178 C8.32754491,45.0305389 6.7994012,45.0305389 5.85948104,44.0911178 C4.92045908,43.1520958 4.92045908,41.6234531 5.85948104,40.6840319 L6.05429142,40.4892216 L9.46137725,43.8963074 L9.26656687,44.0911178 Z M15.5088822,47.1647705 L12.2404192,43.8963074 L6.05419162,37.7100798 L2.77904192,34.4349301 L6.19381238,31.0206587 L18.9289421,43.7562874 L15.5088822,47.1647705 Z M27.9354291,43.1689621 L24.5283433,46.5760479 L21.7106786,43.7582834 L21.7108782,43.7580838 L13.9520958,35.9996008 L3.3749501,25.4222555 L6.78932136,22.0078842 L17.1687625,32.3946108 L20.450499,35.6867265 L20.4545908,35.6826347 L27.9354291,43.1689621 Z M20.4545908,32.9026946 L18.7515968,31.1986028 L17.050998,29.4924152 L29.4872255,17.0566866 L31.1908184,18.75998 L32.8943114,20.4634731 L20.4545908,32.9026946 Z M46.5717565,24.5326347 L43.156986,27.9474052 L35.6732535,20.4634731 L35.6734531,20.4632735 L32.5803393,17.3704591 L22.0035928,6.79361277 L25.4179641,3.37924152 L28.2369261,6.19810379 L28.2368263,6.19820359 L35.9949102,13.955988 L46.5717565,24.5326347 Z" id="Shape"></path>
                    </g>
                </g>
            </g>
        </g>
    </g>
</svg>