<?xml version="1.0" encoding="UTF-8"?>
<svg width="50px" height="50px" viewBox="0 0 50 50" version="1.1" xmlns="http://www.w3.org/2000/svg" xmlns:xlink="http://www.w3.org/1999/xlink">
    <!-- Generator: Sketch 46.2 (44496) - http://www.bohemiancoding.com/sketch -->
    <title>rocket-ship</title>
    <desc>Created with Sketch.</desc>
    <defs></defs>
    <g id="Page-1" stroke="none" stroke-width="1" fill="none" fill-rule="evenodd">
        <g id="Desktop-Landscape" transform="translate(-80.000000, -426.000000)" fill="#419BF9">
            <g id="Group-2" transform="translate(80.000000, 165.000000)">
                <g id="rocket-ship" transform="translate(0.000000, 261.000000)">
                    <g id="Layer_1">
                        <g id="Group">
                            <path d="M49.6955919,1.01435768 C49.6424433,0.584508816 49.3039043,0.245969773 48.8741814,0.192821159 C45.0016373,-0.286146096 41.0055416,0.131360202 37.3166247,1.39974811 C33.62733,2.66826196 30.2190176,4.79685139 27.4604534,7.55541562 L21.1653652,13.8505038 L12.0785894,15.0224181 C11.8714106,15.0491184 11.6790932,15.1437028 11.5313602,15.2913098 L2.77027708,24.0523929 C2.52229219,24.3003778 2.43211587,24.6654912 2.53627204,25.0005038 C2.64017632,25.3355164 2.92141058,25.5852645 3.26624685,25.6491184 L9.89055416,26.8760705 L11.1921914,28.1777078 L8.42103275,29.6783375 C8.15881612,29.8202771 7.97896725,30.0778338 7.93602015,30.3729219 C7.89307305,30.6680101 7.99193955,30.965995 8.20277078,31.1768262 L18.711335,41.6853904 C18.8897985,41.8638539 19.1306045,41.9620907 19.3793451,41.9620907 C19.4244332,41.9620907 19.4700252,41.9588161 19.5153652,41.952267 C19.8104534,41.9093199 20.0680101,41.729471 20.2099496,41.4672544 L21.7107053,38.6960957 L23.0123426,39.997733 L24.2392947,46.6220403 C24.3032746,46.9670025 24.5528967,47.2481108 24.8879093,47.3521411 C24.9799748,47.3807305 25.0743073,47.3945844 25.1680101,47.3945844 C25.4148615,47.3945844 25.6561713,47.297733 25.8361461,47.1178841 L34.5972292,38.356801 C34.7448363,38.209194 34.8394207,38.0167506 34.8661209,37.8096977 L36.0381612,28.722796 L42.3332494,22.4275819 C45.0918136,19.6690176 47.220403,16.2608312 48.4889169,12.5715365 C49.7571788,8.88261965 50.1744332,4.88602015 49.6955919,1.01435768 Z M10.0345088,24.981738 L5.37594458,24.1188917 L12.6395466,16.8550378 L18.9785894,16.0375315 L10.0345088,24.981738 Z M19.1517632,39.4544081 L10.434005,30.7367758 L12.5857683,29.5715365 L20.3168766,37.3027708 L19.1517632,39.4544081 Z M33.0333753,37.2488665 L25.7696474,44.5125945 L24.9066751,39.8541562 L33.8508816,30.9099496 L33.0333753,37.2488665 Z M40.9971033,21.0920655 L23.8875315,38.2016373 L11.6867758,26.0008816 L28.7963476,8.89118388 C31.2822418,6.40516373 34.3381612,4.47355164 37.6486146,3.28790932 C38.0761965,5.49093199 39.1534005,7.53463476 40.7536524,9.13476071 C42.3537783,10.7350126 44.3973552,11.8122166 46.6005038,12.2399244 C45.4147355,15.5501259 43.4829975,18.6060453 40.9971033,21.0920655 Z M47.1691436,10.424937 C45.2544081,10.0983627 43.4732997,9.18274559 42.0894207,7.79899244 C40.7055416,6.41523929 39.7900504,4.63400504 39.4634761,2.71926952 C42.2016373,1.9813602 45.0779597,1.72972292 47.9005038,1.98790932 C48.1588161,4.8104534 47.9070529,7.68677582 47.1691436,10.424937 Z" id="Shape"></path>
                            <path d="M27.8746851,13.9096977 C25.6404282,16.1440806 25.6404282,19.779471 27.8746851,22.0138539 C28.9919395,23.1311083 30.459194,23.6895466 31.9268262,23.6895466 C33.3939547,23.6895466 34.8618388,23.1308564 35.9788413,22.0138539 L35.9789673,22.0138539 C38.2132242,19.779597 38.2132242,16.1440806 35.9788413,13.9096977 C33.7444584,11.6754408 30.1089421,11.6755668 27.8746851,13.9096977 Z M34.643073,20.6779597 C33.1450882,22.1758186 30.7080605,22.1755668 29.2105793,20.6779597 C27.7127204,19.1802267 27.7127204,16.743199 29.2105793,15.245466 C29.9593199,14.4965995 30.943073,14.1222922 31.9267003,14.1222922 C32.9104534,14.1222922 33.8940806,14.4967254 34.6428212,15.245466 C36.1406801,16.743199 36.1406801,19.1802267 34.643073,20.6779597 Z" id="Shape"></path>
                            <path d="M12.388539,37.6782116 C12.0195214,37.3093199 11.4215365,37.3093199 11.0526448,37.6782116 L2.94836272,45.7823678 C2.57947103,46.1512594 2.57947103,46.7493703 2.94836272,47.118136 C3.13287154,47.3025189 3.37468514,47.3948363 3.6163728,47.3948363 C3.85806045,47.3948363 4.09987406,47.3026448 4.28438287,47.118136 L12.388539,39.0139798 C12.7573048,38.6452141 12.7573048,38.0471033 12.388539,37.6782116 Z" id="Shape"></path>
                            <path d="M13.6351385,40.2608312 L9.98387909,43.9120907 C9.61498741,44.2809824 9.61498741,44.8790932 9.98387909,45.2478589 C10.1683879,45.4322418 10.4102015,45.5245592 10.6518892,45.5245592 C10.8935768,45.5245592 11.1353904,45.4323678 11.3198992,45.2478589 L14.9711587,41.5965995 C15.3400504,41.2277078 15.3400504,40.629597 14.9711587,40.2608312 C14.6021411,39.8919395 14.0041562,39.8919395 13.6351385,40.2608312 Z" id="Shape"></path>
                            <path d="M8.70566751,45.581738 C8.3104534,45.581738 7.94974811,45.8366499 7.81624685,46.2080605 C7.68047859,46.5856423 7.80680101,47.0192695 8.12052897,47.2680101 C8.44130982,47.5224181 8.90969773,47.536272 9.24496222,47.3013854 C9.60264484,47.0507557 9.747733,46.5696474 9.57732997,46.1648615 C9.43715365,45.8153652 9.08047859,45.581738 8.70566751,45.581738 Z" id="Shape"></path>
                            <path d="M6.03400504,47.8620907 L5.53123426,48.3648615 C5.16221662,48.7337531 5.16221662,49.331864 5.53110831,49.7007557 C5.71561713,49.8851385 5.95730479,49.9774559 6.19911839,49.9774559 C6.44080605,49.9774559 6.68261965,49.8852645 6.86700252,49.7008816 L7.3697733,49.1981108 C7.73879093,48.8292191 7.73879093,48.2311083 7.36989924,47.8623426 C7.00100756,47.4935768 6.40277078,47.493199 6.03400504,47.8620907 Z" id="Shape"></path>
                            <path d="M5.35289673,39.5483627 C4.98387909,39.179471 4.38589421,39.179471 4.01700252,39.5483627 L0.365743073,43.1996222 C-0.00314861461,43.5685139 -0.00314861461,44.1666247 0.365743073,44.5353904 C0.550251889,44.7197733 0.792065491,44.8120907 1.03375315,44.8120907 C1.27544081,44.8120907 1.51725441,44.7198992 1.70176322,44.5353904 L5.35302267,40.884131 C5.72178841,40.5153652 5.72178841,39.9172544 5.35289673,39.5483627 Z" id="Shape"></path>
                            <path d="M6.8604534,39.1858942 C7.24370277,39.0895466 7.5313602,38.7555416 7.57128463,38.3625945 C7.6104534,37.9778338 7.3988665,37.6007557 7.05541562,37.427204 C6.69080605,37.2428212 6.23387909,37.3197733 5.95100756,37.6153652 C5.64811083,37.931864 5.60440806,38.4246851 5.84370277,38.7910579 C5.8361461,38.7797229 5.83035264,38.7714106 5.84559194,38.7947103 C5.86146096,38.8180101 5.85604534,38.8095718 5.84848866,38.7983627 C6.07103275,39.1216625 6.47720403,39.2822418 6.8604534,39.1858942 Z" id="Shape"></path>
                            <path d="M9.30314861,36.934131 L9.80579345,36.4313602 C10.1746851,36.0624685 10.1746851,35.4643577 9.80566751,35.0955919 C9.43639798,34.7265743 8.83828715,34.7267003 8.46989924,35.0957179 L7.96725441,35.5984887 C7.59836272,35.9673804 7.59836272,36.5654912 7.96738035,36.9342569 C8.15188917,37.1186398 8.39357683,37.2108312 8.63526448,37.2108312 C8.87695214,37.2108312 9.11876574,37.1186398 9.30314861,36.934131 Z" id="Shape"></path>
                        </g>
                    </g>
                </g>
            </g>
        </g>
    </g>
</svg>